<?xml version="1.0" encoding="iso-8859-1"?>
<!-- Generator: Adobe Illustrator 19.0.0, SVG Export Plug-In . SVG Version: 6.00 Build 0)  -->
<svg version="1.1" id="Capa_1" xmlns="http://www.w3.org/2000/svg" xmlns:xlink="http://www.w3.org/1999/xlink" x="0px" y="0px"
	 viewBox="0 0 512 512" style="enable-background:new 0 0 512 512;" xml:space="preserve">
<g>
	<g>
		<path d="M469.333,255.998H344.896c-4.396,0-8.354,2.698-9.938,6.802l-24.896,64c-0.979,2.521-0.979,5.313,0.042,7.823
			l18.208,45.563l-41.146,29.396l10.958-32.875c1.271-3.833,0.271-8.063-2.583-10.917l-38.521-38.531l2.905-13.066l31.887,5.639
			c0.604,0.115,1.229,0.167,1.854,0.167c2.167,0,4.313-0.667,6.125-1.927c2.313-1.625,3.896-4.104,4.375-6.896l24.479-139.135
			l21.5,3.792c4.5,0.823,8.813-1.271,11.063-5.115s1.875-8.698-0.958-12.146L233.479,3.904c-3.333-4.104-9.188-5.073-13.688-2.417
			L47.896,103.373c-3.833,2.271-5.854,6.698-5.063,11.083c0.813,4.396,4.25,7.823,8.646,8.594l21.5,3.802L50.26,255.998h-7.594
			C19.146,255.998,0,275.133,0,298.664v202.667c0,5.896,4.771,10.667,10.667,10.667h490.667c5.896,0,10.667-4.771,10.667-10.667
			V298.664C512,275.133,492.854,255.998,469.333,255.998z M95.833,120.05c1.021-5.792-2.854-11.323-8.646-12.344l-3.667-0.656
			l139.271-82.542L325.479,149.81l-3.625-0.635c-2.813-0.521-5.646,0.135-7.979,1.76c-2.313,1.625-3.896,4.104-4.375,6.896
			l-24.479,139.135l-20.461-3.613l5.419-24.376c0.708-3.156-0.063-6.458-2.104-8.99c-2.021-2.521-5.083-3.99-8.313-3.99h-22.674
			l15.174-86.292c1.021-5.792-2.854-11.323-8.646-12.344l-85.333-15.083c-2.813-0.51-5.646,0.135-7.979,1.76
			c-2.313,1.625-3.896,4.104-4.375,6.896l-18.47,105.063H71.91L95.833,120.05z M229.208,176.508l-13.97,79.49H148.91l15.986-90.854
			L229.208,176.508z M490.667,490.664H21.333v-192c0-11.76,9.563-21.333,21.333-21.333h203.604l-11.354,51.021
			c-0.792,3.563,0.292,7.271,2.875,9.854l38,38.01l-19.25,57.74c-1.458,4.385,0.063,9.208,3.792,11.958
			c3.708,2.75,8.792,2.781,12.542,0.094l74.667-53.333c4-2.854,5.521-8.073,3.688-12.635l-19.771-49.427l20.729-53.281h117.146
			c11.771,0,21.333,9.573,21.333,21.333V490.664z"/>
	</g>
</g>
<g>
</g>
<g>
</g>
<g>
</g>
<g>
</g>
<g>
</g>
<g>
</g>
<g>
</g>
<g>
</g>
<g>
</g>
<g>
</g>
<g>
</g>
<g>
</g>
<g>
</g>
<g>
</g>
<g>
</g>
</svg>
